<mxfile host="65bd71144e">
    <diagram id="OyH" name="Style-Plain">
        <mxGraphModel dx="2147" dy="777" grid="0" gridSize="10" guides="1" tooltips="1" connect="1" arrows="1" fold="1" page="1" pageScale="1" pageWidth="1169" pageHeight="827" background="#fafafa" math="0" shadow="0">
            <root>
                <mxCell id="page_root_OyH"/>
                <mxCell id="node_root_OyH" parent="page_root_OyH"/>
                <mxCell id="1" value="" style="group" parent="node_root_OyH" vertex="1" connectable="0">
                    <mxGeometry x="360" y="703" width="415" height="263" as="geometry"/>
                </mxCell>
                <mxCell id="OyH-17" value="Decorators" style="whiteSpace=wrap;html=1;rounded=0;fillColor=#f5f5f5;strokeColor=#666666;fontColor=#333333;verticalAlign=top;fontSize=30;" parent="1" vertex="1">
                    <mxGeometry width="415" height="263" as="geometry"/>
                </mxCell>
                <mxCell id="SpUEBCKOFSfBhqVF4tDH-6" value="&lt;p style=&quot;margin:0px;margin-left:4px;margin-top:4px;text-align:center&quot;&gt;&lt;b&gt;Settings Decorator&lt;/b&gt;&lt;/p&gt;&lt;hr size=&quot;1&quot;/&gt;" style="whiteSpace=wrap;html=1;rounded=0;fillColor=#ffe6cc;strokeColor=#d79b00;fontColor=#333333;align=left;overflow=fill;fontSize=12;fontFamily=Helvetica" parent="1" vertex="1">
                    <mxGeometry x="29" y="69" width="160" height="160" as="geometry"/>
                </mxCell>
                <mxCell id="SpUEBCKOFSfBhqVF4tDH-7" value="&lt;p style=&quot;margin:0px;margin-left:4px;margin-top:4px;text-align:center&quot;&gt;&lt;b&gt;Table Decorator&lt;/b&gt;&lt;/p&gt;&lt;hr size=&quot;1&quot;/&gt;&lt;p style=&quot;margin:0px;margin-left:4px;margin-top:4px&quot;&gt;update()&lt;/p&gt;&lt;p style=&quot;margin:0px;margin-left:4px;margin-top:4px&quot;&gt;update_fields()&lt;/p&gt;&lt;p style=&quot;margin:0px;margin-left:4px;margin-top:4px&quot;&gt;update_rows()&lt;/p&gt;" style="whiteSpace=wrap;html=1;rounded=0;fillColor=#ffe6cc;strokeColor=#d79b00;fontColor=#333333;align=left;overflow=fill;fontSize=12;fontFamily=Helvetica" parent="1" vertex="1">
                    <mxGeometry x="217" y="69" width="160" height="160" as="geometry"/>
                </mxCell>
                <mxCell id="15" value="" style="group" parent="node_root_OyH" vertex="1" connectable="0">
                    <mxGeometry x="29" y="655" width="232" height="306" as="geometry"/>
                </mxCell>
                <mxCell id="9" value="&lt;p style=&quot;margin:0px;margin-left:4px;margin-top:4px;text-align:center&quot;&gt;&lt;b&gt;Container&lt;/b&gt;&lt;/p&gt;&lt;hr size=&quot;1&quot;/&gt;" style="whiteSpace=wrap;html=1;rounded=0;fillColor=#ffe6cc;strokeColor=#d79b00;fontColor=#333333;align=left;overflow=fill;fontSize=12;fontFamily=Helvetica" parent="15" vertex="1">
                    <mxGeometry width="160" height="306" as="geometry"/>
                </mxCell>
                <mxCell id="10" value="&lt;p style=&quot;margin:0px;margin-left:4px;margin-top:4px;text-align:center&quot;&gt;&lt;i&gt;&amp;lt;&amp;lt; MixIn &amp;gt;&amp;gt;&lt;/i&gt;&lt;/p&gt;&lt;p style=&quot;margin:0px;margin-left:4px;margin-top:4px;text-align:center&quot;&gt;&lt;b&gt;Block Processor&lt;/b&gt;&lt;/p&gt;&lt;hr size=&quot;1&quot;/&gt;" style="whiteSpace=wrap;html=1;rounded=0;fillColor=#dae8fc;strokeColor=#6c8ebf;fontColor=#333333;align=left;overflow=fill;fontSize=12;fontFamily=Helvetica" parent="15" vertex="1">
                    <mxGeometry x="72" y="37" width="160" height="52" as="geometry"/>
                </mxCell>
                <mxCell id="12" value="&lt;p style=&quot;margin:0px;margin-left:4px;margin-top:4px;text-align:center&quot;&gt;&lt;i&gt;&amp;lt;&amp;lt; MixIn &amp;gt;&amp;gt;&lt;/i&gt;&lt;/p&gt;&lt;p style=&quot;margin:0px;margin-left:4px;margin-top:4px;text-align:center&quot;&gt;&lt;b&gt;Datum&lt;/b&gt;&lt;/p&gt;&lt;hr size=&quot;1&quot;/&gt;" style="whiteSpace=wrap;html=1;rounded=0;fillColor=#dae8fc;strokeColor=#6c8ebf;fontColor=#333333;align=left;overflow=fill;fontSize=12;fontFamily=Helvetica" parent="15" vertex="1">
                    <mxGeometry x="72" y="103" width="160" height="54" as="geometry"/>
                </mxCell>
                <mxCell id="13" value="&lt;p style=&quot;margin:0px;margin-left:4px;margin-top:4px;text-align:center&quot;&gt;&lt;i&gt;&amp;lt;&amp;lt; MixIn &amp;gt;&amp;gt;&lt;/i&gt;&lt;/p&gt;&lt;p style=&quot;margin:0px;margin-left:4px;margin-top:4px;text-align:center&quot;&gt;&lt;b&gt;Guarded&lt;/b&gt;&lt;/p&gt;&lt;hr size=&quot;1&quot;/&gt;" style="whiteSpace=wrap;html=1;rounded=0;fillColor=#dae8fc;strokeColor=#6c8ebf;fontColor=#333333;align=left;overflow=fill;fontSize=12;fontFamily=Helvetica" parent="15" vertex="1">
                    <mxGeometry x="72" y="171" width="160" height="54" as="geometry"/>
                </mxCell>
                <mxCell id="14" value="&lt;p style=&quot;margin:0px;margin-left:4px;margin-top:4px;text-align:center&quot;&gt;&lt;i&gt;&amp;lt;&amp;lt; MixIn &amp;gt;&amp;gt;&lt;/i&gt;&lt;/p&gt;&lt;p style=&quot;margin:0px;margin-left:4px;margin-top:4px;text-align:center&quot;&gt;&lt;b&gt;Taggable&lt;/b&gt;&lt;/p&gt;&lt;hr size=&quot;1&quot;/&gt;" style="whiteSpace=wrap;html=1;rounded=0;fillColor=#dae8fc;strokeColor=#6c8ebf;fontColor=#333333;align=left;overflow=fill;fontSize=12;fontFamily=Helvetica" parent="15" vertex="1">
                    <mxGeometry x="72" y="239" width="160" height="54" as="geometry"/>
                </mxCell>
                <mxCell id="OyH-11" value="Mixins" style="whiteSpace=wrap;html=1;rounded=0;fillColor=#f5f5f5;strokeColor=#666666;fontColor=#333333;verticalAlign=top;fontSize=30;" parent="node_root_OyH" vertex="1">
                    <mxGeometry x="28" y="997" width="767" height="244" as="geometry"/>
                </mxCell>
                <mxCell id="OyH-12" value="&lt;p style=&quot;margin:0px;margin-left:4px;margin-top:4px;text-align:center&quot;&gt;&lt;i&gt;&amp;lt;&amp;lt; MixIn &amp;gt;&amp;gt;&lt;/i&gt;&lt;/p&gt;&lt;p style=&quot;margin:0px;margin-left:4px;margin-top:4px;text-align:center&quot;&gt;&lt;b&gt;Block Processor&lt;/b&gt;&lt;/p&gt;&lt;hr size=&quot;1&quot;/&gt;&lt;p style=&quot;margin:0px;margin-left:4px;margin-top:4px&quot;&gt;block: proc&lt;/p&gt;&lt;p style=&quot;margin:0px;margin-left:4px;margin-top:4px&quot;&gt;block_state: symbol&lt;/p&gt;&lt;p style=&quot;margin:0px;margin-left:4px;margin-top:4px&quot;&gt;init_block: proc&lt;/p&gt;&lt;p style=&quot;margin:0px;margin-left:4px;margin-top:4px&quot;&gt;action_block: proc&lt;/p&gt;&lt;p style=&quot;margin:0px;margin-left:4px;margin-top:4px&quot;&gt;children: array&lt;/p&gt;&lt;p style=&quot;margin:0px;margin-left:4px;margin-top:4px&quot;&gt;depend_on_tags: array&lt;/p&gt;&lt;p style=&quot;margin:0px;margin-left:4px;margin-top:4px&quot;&gt;dependents: array&lt;/p&gt;&lt;hr size=&quot;1&quot;/&gt;&lt;p style=&quot;margin:0px;margin-left:4px;margin-top:4px&quot;&gt;depend_on()&lt;/p&gt;&lt;p style=&quot;margin:0px;margin-left:4px;margin-top:4px&quot;&gt;resolve_dependency()&lt;/p&gt;&lt;p style=&quot;margin:0px;margin-left:4px;margin-top:4px&quot;&gt;import()&lt;/p&gt;&lt;p style=&quot;margin:0px;margin-left:4px;margin-top:4px&quot;&gt;import_data()&lt;/p&gt;&lt;p style=&quot;margin:0px;margin-left:4px;margin-top:4px&quot;&gt;dependencies_met()&lt;/p&gt;&lt;p style=&quot;margin:0px;margin-left:4px;margin-top:4px&quot;&gt;execute_block()&lt;/p&gt;&lt;p style=&quot;margin:0px;margin-left:4px;margin-top:4px&quot;&gt;block_execute()&lt;/p&gt;&lt;p style=&quot;margin:0px;margin-left:4px;margin-top:4px&quot;&gt;new()&lt;/p&gt;&lt;p style=&quot;margin:0px;margin-left:4px;margin-top:4px&quot;&gt;evaluated()&lt;/p&gt;&lt;p style=&quot;margin:0px;margin-left:4px;margin-top:4px&quot;&gt;initialized()&lt;/p&gt;&lt;p style=&quot;margin:0px;margin-left:4px;margin-top:4px&quot;&gt;children_evaluated()&lt;/p&gt;&lt;p style=&quot;margin:0px;margin-left:4px;margin-top:4px&quot;&gt;actioned()&lt;/p&gt;&lt;p style=&quot;margin:0px;margin-left:4px;margin-top:4px&quot;&gt;fire_eval()&lt;/p&gt;&lt;p style=&quot;margin:0px;margin-left:4px;margin-top:4px&quot;&gt;init()&lt;/p&gt;&lt;p style=&quot;margin:0px;margin-left:4px;margin-top:4px&quot;&gt;fire_init()&lt;/p&gt;&lt;p style=&quot;margin:0px;margin-left:4px;margin-top:4px&quot;&gt;add_child()&lt;/p&gt;&lt;p style=&quot;margin:0px;margin-left:4px;margin-top:4px&quot;&gt;fire_children()&lt;/p&gt;&lt;p style=&quot;margin:0px;margin-left:4px;margin-top:4px&quot;&gt;action()&lt;/p&gt;&lt;p style=&quot;margin:0px;margin-left:4px;margin-top:4px&quot;&gt;fire_action()&lt;/p&gt;" style="whiteSpace=wrap;html=1;rounded=0;fillColor=#dae8fc;strokeColor=#6c8ebf;fontColor=#333333;align=left;overflow=fill;fontSize=12;fontFamily=Helvetica" parent="node_root_OyH" vertex="1">
                    <mxGeometry x="54" y="1053" width="160" height="533" as="geometry"/>
                </mxCell>
                <mxCell id="OyH-14" value="&lt;p style=&quot;margin:0px;margin-left:4px;margin-top:4px;text-align:center&quot;&gt;&lt;i&gt;&amp;lt;&amp;lt; MixIn &amp;gt;&amp;gt;&lt;/i&gt;&lt;/p&gt;&lt;p style=&quot;margin:0px;margin-left:4px;margin-top:4px;text-align:center&quot;&gt;&lt;b&gt;Datum&lt;/b&gt;&lt;/p&gt;&lt;hr size=&quot;1&quot;/&gt;&lt;p style=&quot;margin:0px;margin-left:4px;margin-top:4px&quot;&gt;default_data_type&lt;/p&gt;&lt;hr size=&quot;1&quot;/&gt;&lt;p style=&quot;margin:0px;margin-left:4px;margin-top:4px&quot;&gt;set_data()&lt;/p&gt;" style="whiteSpace=wrap;html=1;rounded=0;fillColor=#dae8fc;strokeColor=#6c8ebf;fontColor=#333333;align=left;overflow=fill;fontSize=12;fontFamily=Helvetica" parent="node_root_OyH" vertex="1">
                    <mxGeometry x="240" y="1053" width="160" height="160" as="geometry"/>
                </mxCell>
                <mxCell id="OyH-15" value="&lt;p style=&quot;margin:0px;margin-left:4px;margin-top:4px;text-align:center&quot;&gt;&lt;i&gt;&amp;lt;&amp;lt; MixIn &amp;gt;&amp;gt;&lt;/i&gt;&lt;/p&gt;&lt;p style=&quot;margin:0px;margin-left:4px;margin-top:4px;text-align:center&quot;&gt;&lt;b&gt;Guarded&lt;/b&gt;&lt;/p&gt;&lt;hr size=&quot;1&quot;/&gt;&lt;p style=&quot;margin:0px;margin-left:4px;margin-top:4px&quot;&gt;errors&lt;/p&gt;&lt;p style=&quot;margin:0px;margin-left:4px;margin-top:4px&quot;&gt;error_messages&lt;/p&gt;&lt;p style=&quot;margin:0px;margin-left:4px;margin-top:4px&quot;&gt;error_hash&lt;/p&gt;&lt;p style=&quot;margin:0px;margin-left:4px;margin-top:4px&quot;&gt;valid?&lt;/p&gt;&lt;hr size=&quot;1&quot;/&gt;&lt;p style=&quot;margin:0px;margin-left:4px;margin-top:4px&quot;&gt;guard()&lt;/p&gt;&lt;p style=&quot;margin:0px;margin-left:4px;margin-top:4px&quot;&gt;warn()&lt;/p&gt;" style="whiteSpace=wrap;html=1;rounded=0;fillColor=#dae8fc;strokeColor=#6c8ebf;fontColor=#333333;align=left;overflow=fill;fontSize=12;fontFamily=Helvetica" parent="node_root_OyH" vertex="1">
                    <mxGeometry x="424" y="1053" width="160" height="160" as="geometry"/>
                </mxCell>
                <mxCell id="OyH-16" value="&lt;p style=&quot;margin:0px;margin-left:4px;margin-top:4px;text-align:center&quot;&gt;&lt;i&gt;&amp;lt;&amp;lt; MixIn &amp;gt;&amp;gt;&lt;/i&gt;&lt;/p&gt;&lt;p style=&quot;margin:0px;margin-left:4px;margin-top:4px;text-align:center&quot;&gt;&lt;b&gt;Taggable&lt;/b&gt;&lt;/p&gt;&lt;hr size=&quot;1&quot;/&gt;&lt;p style=&quot;margin:0px;margin-left:4px;margin-top:4px&quot;&gt;tag_options&lt;/p&gt;&lt;p style=&quot;margin:0px;margin-left:4px;margin-top:4px&quot;&gt;tag&lt;/p&gt;&lt;p style=&quot;margin:0px;margin-left:4px;margin-top:4px&quot;&gt;key&lt;/p&gt;&lt;p style=&quot;margin:0px;margin-left:4px;margin-top:4px&quot;&gt;type&lt;/p&gt;&lt;p style=&quot;margin:0px;margin-left:4px;margin-top:4px&quot;&gt;project&lt;/p&gt;&lt;p style=&quot;margin:0px;margin-left:4px;margin-top:4px&quot;&gt;namespace&lt;/p&gt;" style="whiteSpace=wrap;html=1;rounded=0;fillColor=#dae8fc;strokeColor=#6c8ebf;fontColor=#333333;align=left;overflow=fill;fontSize=12;fontFamily=Helvetica" parent="node_root_OyH" vertex="1">
                    <mxGeometry x="608" y="1053" width="160" height="160" as="geometry"/>
                </mxCell>
                <mxCell id="OyH-2" value="Documents" style="whiteSpace=wrap;html=1;rounded=0;fillColor=#f5f5f5;strokeColor=#666666;fontColor=#333333;verticalAlign=top;fontSize=30;dashed=1;opacity=10;gradientColor=#ffffff;" parent="node_root_OyH" vertex="1">
                    <mxGeometry x="39" y="105" width="745" height="525" as="geometry"/>
                </mxCell>
                <mxCell id="16" style="html=1;exitX=0;exitY=0.75;exitDx=0;exitDy=0;shape=link;fillColor=#f0a30a;strokeColor=#BD7000;elbow=vertical;edgeStyle=orthogonalEdgeStyle;startArrow=none;startFill=0;strokeWidth=1;shadow=0;rounded=1;sketch=1;" edge="1" parent="node_root_OyH" source="OyH-4" target="OyH-6">
                    <mxGeometry relative="1" as="geometry"/>
                </mxCell>
                <mxCell id="18" style="shape=link;rounded=1;sketch=1;html=1;exitX=1;exitY=0.75;exitDx=0;exitDy=0;entryX=0;entryY=0.5;entryDx=0;entryDy=0;shadow=0;labelBackgroundColor=default;fontFamily=Helvetica;fontSize=11;fontColor=default;startArrow=none;startFill=0;endArrow=classic;strokeColor=#BD7000;strokeWidth=1;fillColor=#f0a30a;elbow=vertical;edgeStyle=orthogonalEdgeStyle;curved=1;" edge="1" parent="node_root_OyH" source="OyH-4" target="OyH-8">
                    <mxGeometry relative="1" as="geometry"/>
                </mxCell>
                <mxCell id="21" style="edgeStyle=orthogonalEdgeStyle;shape=link;curved=1;rounded=1;sketch=1;html=1;exitX=0;exitY=0.25;exitDx=0;exitDy=0;shadow=0;labelBackgroundColor=default;fontFamily=Helvetica;fontSize=11;fontColor=default;startArrow=none;startFill=0;endArrow=classic;strokeColor=#BD7000;strokeWidth=1;fillColor=#f0a30a;elbow=vertical;" edge="1" parent="node_root_OyH" source="OyH-4" target="OyH-3">
                    <mxGeometry relative="1" as="geometry"/>
                </mxCell>
                <mxCell id="OyH-4" value="&lt;p style=&quot;margin:0px;margin-left:4px;margin-top:4px;text-align:center&quot;&gt;&lt;b&gt;Container&lt;/b&gt;&lt;/p&gt;&lt;hr size=&quot;1&quot;/&gt;&lt;p style=&quot;margin:0px;margin-left:4px;margin-top:4px&quot;&gt;context: open_struct&lt;/p&gt;&lt;p style=&quot;margin:0px;margin-left:4px;margin-top:4px&quot;&gt;owner: object&lt;/p&gt;&lt;p style=&quot;margin:0px;margin-left:4px;margin-top:4px&quot;&gt;default_container_type&lt;/p&gt;&lt;p style=&quot;margin:0px;margin-left:4px;margin-top:4px&quot;&gt;default_data_type&lt;/p&gt;" style="whiteSpace=wrap;html=1;rounded=0;fillColor=#ffe6cc;strokeColor=#d79b00;fontColor=#333333;align=left;overflow=fill;fontSize=12;fontFamily=Helvetica" parent="node_root_OyH" vertex="1">
                    <mxGeometry x="306" y="193" width="160" height="160" as="geometry"/>
                </mxCell>
                <mxCell id="OyH-6" value="&lt;p style=&quot;margin:0px;margin-left:4px;margin-top:4px;text-align:center&quot;&gt;&lt;b&gt;JSON Doc&lt;/b&gt;&lt;/p&gt;&lt;hr size=&quot;1&quot;/&gt;&lt;p style=&quot;margin:0px;margin-left:4px;margin-top:4px&quot;&gt;file: string&lt;/p&gt;&lt;p style=&quot;margin:0px;margin-left:4px;margin-top:4px&quot;&gt;loaded?&lt;/p&gt;&lt;hr size=&quot;1&quot;/&gt;&lt;p style=&quot;margin:0px;margin-left:4px;margin-top:4px&quot;&gt;load()&lt;/p&gt;" style="whiteSpace=wrap;html=1;rounded=0;fillColor=#ffe6cc;strokeColor=#d79b00;fontColor=#333333;align=left;overflow=fill;fontSize=12;fontFamily=Helvetica" parent="node_root_OyH" vertex="1">
                    <mxGeometry x="74" y="365" width="160" height="97" as="geometry"/>
                </mxCell>
                <mxCell id="19" style="edgeStyle=orthogonalEdgeStyle;shape=link;curved=1;rounded=1;sketch=1;html=1;exitX=0.25;exitY=1;exitDx=0;exitDy=0;entryX=0.5;entryY=0;entryDx=0;entryDy=0;shadow=0;labelBackgroundColor=default;fontFamily=Helvetica;fontSize=11;fontColor=default;startArrow=none;startFill=0;endArrow=classic;strokeColor=#BD7000;strokeWidth=1;fillColor=#f0a30a;elbow=vertical;" edge="1" parent="node_root_OyH" source="OyH-8" target="OyH-9">
                    <mxGeometry relative="1" as="geometry"/>
                </mxCell>
                <mxCell id="20" style="edgeStyle=orthogonalEdgeStyle;shape=link;curved=1;rounded=1;sketch=1;html=1;exitX=0.5;exitY=1;exitDx=0;exitDy=0;entryX=0.5;entryY=0;entryDx=0;entryDy=0;shadow=0;labelBackgroundColor=default;fontFamily=Helvetica;fontSize=11;fontColor=default;startArrow=none;startFill=0;endArrow=classic;strokeColor=#BD7000;strokeWidth=1;fillColor=#f0a30a;elbow=vertical;" edge="1" parent="node_root_OyH" source="OyH-8" target="OyH-10">
                    <mxGeometry relative="1" as="geometry"/>
                </mxCell>
                <mxCell id="OyH-8" value="&lt;p style=&quot;margin:0px;margin-left:4px;margin-top:4px;text-align:center&quot;&gt;&lt;b&gt;Model&lt;/b&gt;&lt;/p&gt;&lt;hr size=&quot;1&quot;/&gt;&lt;p style=&quot;margin:0px;margin-left:4px;margin-top:4px&quot;&gt;odata: open_struct&lt;/p&gt;&lt;p style=&quot;margin:0px;margin-left:4px;margin-top:4px&quot;&gt;oraw: open_struct&lt;/p&gt;&lt;hr size=&quot;1&quot;/&gt;&lt;p style=&quot;margin:0px;margin-left:4px;margin-top:4px&quot;&gt;settings()&lt;/p&gt;&lt;p style=&quot;margin:0px;margin-left:4px;margin-top:4px&quot;&gt;table()&lt;/p&gt;" style="whiteSpace=wrap;html=1;rounded=0;fillColor=#ffe6cc;strokeColor=#d79b00;fontColor=#333333;align=left;overflow=fill;fontSize=12;fontFamily=Helvetica" parent="node_root_OyH" vertex="1">
                    <mxGeometry x="523" y="193" width="160" height="160" as="geometry"/>
                </mxCell>
                <mxCell id="OyH-9" value="&lt;p style=&quot;margin:0px;margin-left:4px;margin-top:4px;text-align:center&quot;&gt;&lt;b&gt;Settings&lt;/b&gt;&lt;/p&gt;&lt;hr size=&quot;1&quot;/&gt;&lt;p style=&quot;margin:0px;margin-left:4px;margin-top:4px&quot;&gt;parent: object&lt;/p&gt;&lt;p style=&quot;margin:0px;margin-left:4px;margin-top:4px&quot;&gt;key: string&lt;/p&gt;&lt;p style=&quot;margin:0px;margin-left:4px;margin-top:4px&quot;&gt;decorators: array&lt;/p&gt;&lt;p style=&quot;margin:0px;margin-left:4px;margin-top:4px&quot;&gt;block: proc&lt;/p&gt;&lt;p style=&quot;margin:0px;margin-left:4px;margin-top:4px&quot;&gt;context&lt;/p&gt;&lt;p style=&quot;margin:0px;margin-left:4px;margin-top:4px&quot;&gt;internal_data&lt;/p&gt;&lt;hr size=&quot;1&quot;/&gt;&lt;p style=&quot;margin:0px;margin-left:4px;margin-top:4px&quot;&gt;fire_eval()&lt;/p&gt;" style="whiteSpace=wrap;html=1;rounded=0;fillColor=#ffe6cc;strokeColor=#d79b00;fontColor=#333333;align=left;overflow=fill;fontSize=12;fontFamily=Helvetica" parent="node_root_OyH" vertex="1">
                    <mxGeometry x="433" y="420" width="160" height="170" as="geometry"/>
                </mxCell>
                <mxCell id="OyH-10" value="&lt;p style=&quot;margin:0px;margin-left:4px;margin-top:4px;text-align:center&quot;&gt;&lt;b&gt;Table&lt;/b&gt;&lt;/p&gt;&lt;hr size=&quot;1&quot;/&gt;&lt;p style=&quot;margin:0px;margin-left:4px;margin-top:4px&quot;&gt;parent: object&lt;/p&gt;&lt;p style=&quot;margin:0px;margin-left:4px;margin-top:4px&quot;&gt;key: string&lt;/p&gt;&lt;p style=&quot;margin:0px;margin-left:4px;margin-top:4px&quot;&gt;decorators: array&lt;/p&gt;&lt;p style=&quot;margin:0px;margin-left:4px;margin-top:4px&quot;&gt;block: proc&lt;/p&gt;&lt;p style=&quot;margin:0px;margin-left:4px;margin-top:4px&quot;&gt;context&lt;/p&gt;&lt;p style=&quot;margin:0px;margin-left:4px;margin-top:4px&quot;&gt;internal_data&lt;/p&gt;&lt;hr size=&quot;1&quot;/&gt;&lt;p style=&quot;margin:0px;margin-left:4px;margin-top:4px&quot;&gt;fire_eval()&lt;/p&gt;" style="whiteSpace=wrap;html=1;rounded=0;fillColor=#ffe6cc;strokeColor=#d79b00;fontColor=#333333;align=left;overflow=fill;fontSize=12;fontFamily=Helvetica" parent="node_root_OyH" vertex="1">
                    <mxGeometry x="611" y="420" width="160" height="170" as="geometry"/>
                </mxCell>
                <mxCell id="OyH-5" value="&lt;p style=&quot;margin:0px;margin-left:4px;margin-top:4px;text-align:center&quot;&gt;&lt;b&gt;CSV Doc&lt;/b&gt;&lt;/p&gt;&lt;hr size=&quot;1&quot;/&gt;&lt;p style=&quot;margin:0px;margin-left:4px;margin-top:4px&quot;&gt;file: string&lt;/p&gt;&lt;p style=&quot;margin:0px;margin-left:4px;margin-top:4px&quot;&gt;loaded?&lt;/p&gt;&lt;hr size=&quot;1&quot;/&gt;&lt;p style=&quot;margin:0px;margin-left:4px;margin-top:4px&quot;&gt;load()&lt;/p&gt;" style="whiteSpace=wrap;html=1;rounded=0;fillColor=#ffe6cc;strokeColor=#d79b00;fontColor=#333333;align=left;overflow=fill;fontSize=12;fontFamily=Helvetica" parent="node_root_OyH" vertex="1">
                    <mxGeometry x="142" y="403" width="160" height="99" as="geometry"/>
                </mxCell>
                <mxCell id="OyH-7" value="&lt;p style=&quot;margin:0px;margin-left:4px;margin-top:4px;text-align:center&quot;&gt;&lt;b&gt;YAML Doc&lt;/b&gt;&lt;/p&gt;&lt;hr size=&quot;1&quot;/&gt;&lt;p style=&quot;margin:0px;margin-left:4px;margin-top:4px&quot;&gt;file: string&lt;/p&gt;&lt;p style=&quot;margin:0px;margin-left:4px;margin-top:4px&quot;&gt;loaded?&lt;/p&gt;&lt;hr size=&quot;1&quot;/&gt;&lt;p style=&quot;margin:0px;margin-left:4px;margin-top:4px&quot;&gt;load()&lt;/p&gt;" style="whiteSpace=wrap;html=1;rounded=0;fillColor=#ffe6cc;strokeColor=#d79b00;fontColor=#333333;align=left;overflow=fill;fontSize=12;fontFamily=Helvetica" parent="node_root_OyH" vertex="1">
                    <mxGeometry x="208" y="442" width="160" height="99" as="geometry"/>
                </mxCell>
                <mxCell id="OyH-3" value="&lt;p style=&quot;margin:0px;margin-left:4px;margin-top:4px;text-align:center&quot;&gt;&lt;b&gt;Action&lt;/b&gt;&lt;/p&gt;&lt;hr size=&quot;1&quot;/&gt;" style="whiteSpace=wrap;html=1;rounded=0;fillColor=#ffe6cc;strokeColor=#d79b00;fontColor=#333333;align=left;overflow=fill;fontSize=12;fontFamily=Helvetica" parent="node_root_OyH" vertex="1">
                    <mxGeometry x="74" y="190" width="160" height="56" as="geometry"/>
                </mxCell>
            </root>
        </mxGraphModel>
    </diagram>
</mxfile>